<?xml version="1.0" standalone="no"?>
<!DOCTYPE svg PUBLIC "-//W3C//DTD SVG 20010904//EN"
 "http://www.w3.org/TR/2001/REC-SVG-20010904/DTD/svg10.dtd">
<svg version="1.0" xmlns="http://www.w3.org/2000/svg"
 width="16.000000pt" height="16.000000pt" viewBox="0 0 16.000000 16.000000"
 preserveAspectRatio="xMidYMid meet">
<metadata>
Created by potrace 1.11, written by Peter Selinger 2001-2013
</metadata>
<g transform="translate(0.000000,16.000000) scale(0.004290,-0.004290)"
fill="#000000" stroke="none">
<path d="M1665 3512 c-99 -54 -220 -120 -268 -146 -49 -26 -87 -50 -85 -52 9
-9 540 -294 548 -294 7 0 539 285 547 294 6 6 -533 296 -548 296 -8 0 -95 -44
-194 -98z"/>
<path d="M1212 2863 l3 -298 270 -147 c149 -81 273 -147 278 -148 4 0 6 133 5
296 l-3 296 -269 149 c-148 82 -273 149 -278 149 -4 0 -7 -134 -6 -297z"/>
<path d="M2220 3010 l-265 -148 -3 -296 c-1 -163 1 -296 5 -296 5 1 130 67
278 148 l270 147 3 298 c2 235 0 297 -10 296 -7 -1 -132 -68 -278 -149z"/>
<path d="M770 2803 c-129 -46 -289 -103 -355 -126 l-120 -42 -3 -332 c-1 -183
0 -333 2 -333 5 0 287 154 333 182 l32 19 3 111 3 111 174 63 c95 34 178 67
183 72 12 12 6 355 -7 358 -5 1 -116 -36 -245 -83z"/>
<path d="M2690 2711 c0 -133 3 -182 13 -188 6 -4 89 -35 182 -69 l170 -61 5
-114 5 -114 170 -93 c94 -52 176 -96 183 -99 10 -4 12 63 10 328 l-3 333 -35
13 c-178 64 -688 243 -693 243 -4 0 -7 -81 -7 -179z"/>
<path d="M485 1847 c-143 -78 -266 -146 -273 -151 -10 -6 8 -20 65 -51 43 -23
167 -90 275 -149 l197 -107 123 67 c68 37 189 102 271 146 81 44 147 83 147
88 0 6 -534 301 -543 300 -1 0 -119 -65 -262 -143z"/>
<path d="M2705 1847 c-143 -78 -266 -146 -273 -151 -9 -5 74 -56 262 -157
l276 -150 276 150 c266 144 275 150 252 164 -32 20 -526 287 -530 287 -2 -1
-120 -65 -263 -143z"/>
<path d="M100 1236 l0 -295 268 -145 c148 -80 274 -146 281 -146 8 0 11 73 9
293 l-3 292 -270 147 c-148 81 -273 148 -277 148 -5 0 -8 -132 -8 -294z"/>
<path d="M1135 1394 c-137 -75 -260 -142 -272 -150 -23 -14 -23 -15 -23 -304
0 -209 3 -290 11 -290 6 0 132 66 280 146 l269 146 0 294 c0 162 -3 294 -7
294 -5 0 -120 -61 -258 -136z"/>
<path d="M2320 1236 l0 -294 268 -146 c148 -80 274 -146 281 -146 8 0 11 74 9
293 l-3 292 -270 147 c-148 81 -273 148 -277 148 -5 0 -8 -132 -8 -294z"/>
<path d="M3334 1382 l-269 -147 -3 -292 c-2 -220 1 -293 9 -293 16 0 532 280
541 294 10 15 10 574 0 580 -4 3 -129 -61 -278 -142z"/>
<path d="M1173 642 c-100 -53 -181 -101 -179 -107 3 -12 845 -415 866 -415 22
0 863 403 866 415 2 6 -81 54 -183 108 l-186 99 -246 -116 c-135 -64 -249
-116 -253 -116 -3 0 -116 52 -249 115 -133 63 -245 115 -248 115 -3 -1 -88
-45 -188 -98z"/>
</g>
</svg>
